<svg width="203" height="45" viewBox="0 0 203 45" fill="none" xmlns="http://www.w3.org/2000/svg">
<g clip-path="url(#clip0_10_227)">
<path d="M106.315 15.7024C105.225 14.3797 103.84 13.3376 102.274 12.6619C100.42 11.8955 98.4294 11.5258 96.4272 11.576C94.9516 11.5291 93.4838 11.8108 92.1281 12.4013C90.9364 12.9397 89.8897 13.7589 89.0758 14.7902H88.6889V3.97484C88.6805 3.59309 88.5918 3.21752 88.4287 2.87304C88.2657 2.52857 88.032 2.22307 87.7431 1.97681C87.048 1.3498 86.1376 1.02242 85.2067 1.06467C84.237 1.02415 83.287 1.34925 82.5413 1.97681C82.266 2.22924 82.047 2.53793 81.8987 2.8824C81.7505 3.22687 81.6764 3.59925 81.6815 3.97484V31.5563C81.6665 33.2358 81.9731 34.9025 82.5843 36.4645C83.1657 37.9686 84.077 39.32 85.2497 40.4171C86.4903 41.5749 87.9538 42.462 89.5487 43.0232C91.5622 43.6739 93.6688 43.9822 95.7823 43.9354C97.8306 43.9875 99.8668 43.6027 101.758 42.806C103.394 42.103 104.861 41.051 106.057 39.7221C107.184 38.4618 108.046 36.9844 108.593 35.3786C109.149 33.6091 109.425 31.7621 109.41 29.9057V26.0834C109.422 24.1276 109.147 22.1807 108.593 20.3065C108.144 18.634 107.37 17.0688 106.315 15.7024ZM102.274 29.9057C102.393 31.8426 101.778 33.7525 100.554 35.2483C99.9752 35.9081 99.2583 36.4296 98.4553 36.7752C97.6523 37.1207 96.7833 37.2817 95.9113 37.2463C94.1456 37.3089 92.3994 36.8566 90.8814 35.9432C90.2028 35.5192 89.6543 34.9127 89.2975 34.1916C88.9406 33.4705 88.7894 32.6633 88.8609 31.8603V24.6501C88.8191 23.7529 88.9705 22.8573 89.3045 22.0249C89.6384 21.1925 90.1471 20.4433 90.7954 19.8287C92.0143 18.8403 93.5316 18.3038 95.0945 18.3085C96.031 18.2674 96.9657 18.4238 97.8391 18.7678C98.7125 19.1118 99.5054 19.6358 100.167 20.3065C101.556 21.9248 102.252 24.0339 102.102 26.1703L102.274 29.9057Z" fill="#333333"/>
<path d="M120.889 11.576C119.919 11.5355 118.969 11.8606 118.223 12.4882C117.916 12.7241 117.665 13.0255 117.487 13.3708C117.308 13.7162 117.207 14.097 117.191 14.4862V40.8949C117.207 41.2841 117.308 41.6649 117.487 42.0102C117.665 42.3556 117.916 42.657 118.223 42.8929C118.969 43.5205 119.919 43.8456 120.889 43.805C121.82 43.8473 122.73 43.5199 123.425 42.8929C123.714 42.6466 123.948 42.3411 124.111 41.9967C124.274 41.6522 124.362 41.2766 124.371 40.8949V14.4862C124.362 14.1044 124.274 13.7289 124.111 13.3844C123.948 13.0399 123.714 12.7344 123.425 12.4882C122.73 11.8611 121.82 11.5338 120.889 11.576Z" fill="#333333"/>
<path d="M120.889 0.500013C119.919 0.459495 118.969 0.784594 118.223 1.41216C117.914 1.64596 117.661 1.94686 117.483 2.29266C117.304 2.63847 117.204 3.02036 117.191 3.41018V4.84355C117.204 5.23337 117.304 5.61526 117.483 5.96107C117.661 6.30687 117.914 6.60777 118.223 6.84157C118.969 7.46913 119.919 7.79423 120.889 7.75371C121.819 7.79137 122.728 7.46459 123.425 6.84157C123.714 6.59532 123.948 6.28982 124.111 5.94534C124.274 5.60087 124.362 5.2253 124.371 4.84355V3.36675C124.362 2.985 124.274 2.60942 124.111 2.26495C123.948 1.92048 123.714 1.61498 123.425 1.36872C122.721 0.761381 121.813 0.450404 120.889 0.500013Z" fill="#333333"/>
<path d="M157.774 15.7024C156.685 14.3797 155.3 13.3376 153.733 12.6619C151.879 11.8955 149.889 11.5258 147.886 11.576C146.411 11.5291 144.943 11.8108 143.587 12.4013C142.396 12.9397 141.349 13.7589 140.535 14.7902H140.148V3.97484C140.14 3.59309 140.051 3.21752 139.888 2.87304C139.725 2.52857 139.491 2.22307 139.202 1.97681C138.507 1.3498 137.597 1.02242 136.666 1.06467C135.696 1.02415 134.746 1.34925 134.001 1.97681C133.749 2.24063 133.554 2.55443 133.428 2.89835C133.302 3.24228 133.248 3.60883 133.27 3.97484V31.5563C133.255 33.2358 133.561 34.9025 134.173 36.4645C134.754 37.9686 135.665 39.32 136.838 40.4171C138.079 41.5749 139.542 42.462 141.137 43.0232C143.151 43.6739 145.257 43.9822 147.371 43.9354C149.419 43.9875 151.455 43.6027 153.346 42.806C154.982 42.103 156.449 41.051 157.645 39.7221C158.772 38.4618 159.635 36.9844 160.182 35.3786C160.737 33.6091 161.013 31.7621 160.999 29.9057V26.0834C161.011 24.1276 160.735 22.1807 160.182 20.3065C159.694 18.6238 158.875 17.0578 157.774 15.7024ZM153.733 29.9057C153.84 31.8483 153.21 33.7589 151.971 35.2483C151.392 35.9081 150.675 36.4296 149.872 36.7752C149.069 37.1207 148.2 37.2817 147.328 37.2463C145.562 37.3089 143.816 36.8566 142.298 35.9432C141.619 35.5192 141.071 34.9127 140.714 34.1916C140.357 33.4705 140.206 32.6633 140.277 31.8603V24.6501C140.235 23.7529 140.387 22.8573 140.721 22.0249C141.055 21.1925 141.563 20.4433 142.212 19.8287C143.431 18.8403 144.948 18.3038 146.511 18.3085C147.447 18.2674 148.382 18.4238 149.255 18.7678C150.129 19.1118 150.922 19.6358 151.584 20.3065C152.972 21.9248 153.668 24.0339 153.518 26.1703L153.733 29.9057Z" fill="#333333"/>
<path d="M172.305 0.500021C171.335 0.459503 170.385 0.784601 169.64 1.41216C169.331 1.64597 169.077 1.94686 168.899 2.29267C168.72 2.63848 168.621 3.02037 168.608 3.41019V4.84355C168.621 5.23337 168.72 5.61527 168.899 5.96107C169.077 6.30688 169.331 6.60778 169.64 6.84158C170.385 7.46914 171.335 7.79424 172.305 7.75372C173.235 7.79138 174.144 7.4646 174.841 6.84158C175.138 6.59942 175.38 6.29573 175.55 5.95104C175.721 5.60635 175.816 5.22868 175.83 4.84355V3.36675C175.822 2.985 175.733 2.60943 175.57 2.26496C175.407 1.92048 175.173 1.61498 174.884 1.36873C174.169 0.750693 173.244 0.439008 172.305 0.500021Z" fill="#333333"/>
<path d="M172.305 11.576C171.335 11.5355 170.385 11.8606 169.64 12.4882C169.333 12.7241 169.081 13.0255 168.903 13.3708C168.725 13.7162 168.624 14.097 168.608 14.4862V40.8949C168.624 41.2841 168.725 41.6649 168.903 42.0102C169.081 42.3556 169.333 42.657 169.64 42.8929C170.385 43.5205 171.335 43.8456 172.305 43.805C173.236 43.8473 174.146 43.5199 174.841 42.8929C175.13 42.6466 175.364 42.3411 175.527 41.9967C175.69 41.6522 175.779 41.2766 175.787 40.8949V14.4862C175.779 14.1044 175.69 13.7289 175.527 13.3844C175.364 13.0399 175.13 12.7344 174.841 12.4882C174.146 11.8611 173.236 11.5338 172.305 11.576Z" fill="#333333"/>
<path d="M202.355 37.7241C202.092 37.4454 201.769 37.2303 201.412 37.0949C201.055 36.9595 200.672 36.9074 200.292 36.9423C199.635 36.8614 198.971 36.8614 198.314 36.9423C197.629 37.026 196.936 37.026 196.251 36.9423C195.872 36.9687 195.493 36.8991 195.147 36.7398C194.802 36.5806 194.501 36.3366 194.273 36.0301C193.74 35.0758 193.458 33.9988 193.456 32.9028V17.8742H198.013C198.357 17.875 198.698 17.8063 199.016 17.672C199.333 17.5378 199.621 17.3407 199.862 17.0923C200.137 16.8146 200.352 16.4818 200.493 16.1153C200.633 15.7488 200.697 15.3566 200.679 14.964C200.686 14.592 200.618 14.2224 200.477 13.8785C200.337 13.5346 200.127 13.2239 199.862 12.966C199.621 12.7176 199.333 12.5205 199.016 12.3862C198.698 12.252 198.357 12.1832 198.013 12.1841H193.456V5.84257V6.14661C193.476 5.81619 193.398 5.48723 193.231 5.20247C193.064 4.9177 192.816 4.6903 192.519 4.54978C192.222 4.40927 191.891 4.36215 191.567 4.41454C191.244 4.46692 190.943 4.6164 190.705 4.84355L181.677 15.0074C181.455 15.2457 181.309 15.545 181.256 15.8675C181.203 16.19 181.246 16.5212 181.379 16.8189C181.513 17.1167 181.731 17.3677 182.006 17.5401C182.281 17.7125 182.6 17.7985 182.924 17.7873H186.449V32.6422C186.14 35.7087 186.916 38.7867 188.641 41.3292C189.548 42.2448 190.639 42.9516 191.842 43.4014C193.044 43.8512 194.328 44.0334 195.606 43.9354C196.536 44.0007 197.47 44.0007 198.4 43.9354C199.2 43.8293 199.982 43.61 200.722 43.2838C201.354 43.0159 201.914 42.5989 202.355 42.0676C202.774 41.5228 202.987 40.8455 202.957 40.1565C203.023 39.731 203.004 39.2964 202.9 38.8786C202.797 38.4607 202.612 38.0681 202.355 37.7241Z" fill="#333333"/>
<path d="M40.8407 1.06464L34.3922 9.7517H60.1864V35.8129H8.59805V9.7517H34.3922L27.9437 1.06464H8.59805C6.31771 1.06464 4.13076 1.97988 2.51831 3.60902C0.905864 5.23816 0 7.44775 0 9.7517L0 35.8129C0 38.1169 0.905864 40.3265 2.51831 41.9556C4.13076 43.5847 6.31771 44.5 8.59805 44.5H60.1864C62.4667 44.5 64.6536 43.5847 66.2661 41.9556C67.8785 40.3265 68.7844 38.1169 68.7844 35.8129V9.7517C68.7844 7.44775 67.8785 5.23816 66.2661 3.60902C64.6536 1.97988 62.4667 1.06464 60.1864 1.06464H40.8407Z" fill="#56575D"/>
<path d="M25.7942 18.4388H17.1961V27.1258H25.7942V18.4388Z" fill="#56575D"/>
<path d="M51.5883 18.4388H42.9903V27.1258H51.5883V18.4388Z" fill="#56575D"/>
</g>
<defs>
<clipPath id="clip0_10_227">
<rect width="203" height="44" fill="white" transform="translate(0 0.5)"/>
</clipPath>
</defs>
</svg>
