<svg width="216" height="43" viewBox="0 0 216 43" fill="none" xmlns="http://www.w3.org/2000/svg">
<g clip-path="url(#clip0_10_253)">
<path d="M13.7351 18.069L22.0995 9.71865L30.4683 18.0734L35.3353 13.2144L22.0995 0L8.86811 13.21L13.7351 18.069Z" fill="#56575D"/>
<path d="M10.2981 21.4992L5.43116 16.6403L0.564015 21.4995L5.43092 26.3584L10.2981 21.4992Z" fill="#56575D"/>
<path d="M13.7351 24.931L22.0995 33.2813L30.468 24.9269L35.3377 29.7832L35.3353 29.7859L22.0995 43L8.86777 29.7903L8.86097 29.7835L13.7351 24.931Z" fill="#56575D"/>
<path d="M38.7683 26.3607L43.6355 21.5015L38.7686 16.6426L33.9014 21.5018L38.7683 26.3607Z" fill="#56575D"/>
<path d="M27.0362 21.4975H27.0383L22.0995 16.5668L18.4497 20.2106H18.4493L18.0302 20.6294L17.1652 21.4931L17.1584 21.4999L17.1652 21.507L22.0995 26.4332L27.0383 21.5026L27.0407 21.4999L27.0362 21.4975Z" fill="#56575D"/>
<path d="M51.2229 10.4193H61.8083C64.4355 10.4193 66.4222 11.0924 67.7686 12.4387C68.8106 13.4814 69.3314 14.7736 69.3314 16.3152V16.3804C69.3314 17.0318 69.2508 17.6074 69.0886 18.1067C68.9266 18.6066 68.7103 19.0566 68.4398 19.4584C68.1701 19.8605 67.8564 20.2134 67.4999 20.517C67.1431 20.8213 66.7597 21.0821 66.3491 21.2988C67.6697 21.7987 68.7093 22.4769 69.4672 23.3348C70.2248 24.1931 70.6041 25.3821 70.6041 26.9019V26.9668C70.6041 28.0094 70.4034 28.9213 70.0016 29.7034C69.5998 30.4849 69.0243 31.1367 68.2748 31.658C67.5254 32.1793 66.6243 32.5699 65.5711 32.8307C64.5179 33.0912 63.3507 33.2213 62.0699 33.2213H51.2229V10.4193ZM60.75 19.6377C61.8597 19.6377 62.7408 19.4482 63.3929 19.0678C64.0454 18.6878 64.3716 18.0741 64.3716 17.2274V17.1622C64.3716 16.4024 64.0886 15.8217 63.5232 15.4196C62.9574 15.0178 62.1417 14.8167 61.0762 14.8167H56.1167V19.6377H60.75ZM62.0879 28.8242C63.1973 28.8242 64.0668 28.6238 64.6982 28.2217C65.3289 27.8199 65.6445 27.1953 65.6445 26.3483V26.2834C65.6445 25.5234 65.3506 24.9209 64.7635 24.4753C64.176 24.0307 63.2299 23.8079 61.9247 23.8079H56.1167V28.8245L62.0879 28.8242Z" fill="#56575D"/>
<path d="M76.9083 10.4193H81.9335V33.2219H76.9083V10.4193Z" fill="#56575D"/>
<path d="M89.5444 10.4193H94.177L104.879 24.4593V10.4193H109.839V33.2219H105.565L94.5036 18.7261V33.2219H89.5444V10.4193Z" fill="#56575D"/>
<path d="M125.052 10.2566H129.685L139.474 33.2219H134.221L132.132 28.1079H122.474L120.386 33.2219H115.263L125.052 10.2566ZM130.338 23.6771L127.303 16.2829L124.269 23.6771H130.338Z" fill="#56575D"/>
<path d="M144.898 10.4193H149.532L160.234 24.4593V10.4193H165.193V33.2219H160.919L149.858 18.7261V33.2219H144.898V10.4193Z" fill="#56575D"/>
<path d="M183.277 33.6125C181.601 33.6125 180.047 33.3082 178.611 32.7006C177.175 32.093 175.935 31.2619 174.891 30.2084C173.847 29.1553 173.031 27.9119 172.444 26.4787C171.857 25.0451 171.563 23.5141 171.563 21.8853V21.8204C171.563 20.1916 171.857 18.6664 172.444 17.2437C173.031 15.8213 173.847 14.5725 174.891 13.4976C175.935 12.4227 177.186 11.5754 178.643 10.9566C180.1 10.3378 181.711 10.0284 183.473 10.0284C184.538 10.0284 185.511 10.1157 186.392 10.2889C187.273 10.4631 188.072 10.7015 188.791 11.0055C189.509 11.3098 190.172 11.6789 190.782 12.113C191.39 12.5477 191.956 13.0252 192.478 13.5465L189.281 17.2274C188.388 16.4242 187.48 15.7938 186.556 15.338C185.631 14.8823 184.593 14.654 183.44 14.654C182.483 14.654 181.596 14.8388 180.781 15.208C179.965 15.5771 179.263 16.0873 178.676 16.7387C178.089 17.39 177.632 18.145 177.305 19.0026C176.98 19.8608 176.817 20.7781 176.817 21.7552V21.8201C176.817 22.7972 176.98 23.7206 177.305 24.5887C177.632 25.4578 178.083 26.2175 178.66 26.8689C179.236 27.5203 179.932 28.0365 180.748 28.4166C181.564 28.797 182.461 28.9865 183.44 28.9865C184.745 28.9865 185.848 28.7477 186.751 28.2699C187.654 27.7927 188.552 27.141 189.443 26.3153L192.641 29.5404C192.054 30.1704 191.444 30.7352 190.814 31.2341C190.183 31.734 189.492 32.1626 188.742 32.5213C187.991 32.8792 187.17 33.1513 186.279 33.3353C185.386 33.5198 184.386 33.6125 183.277 33.6125Z" fill="#56575D"/>
<path d="M198.555 10.4193H215.75V14.8823H203.515V19.508H214.282V23.9706H203.515V28.7593H215.914V33.2219H198.555V10.4193Z" fill="#56575D"/>
</g>
<defs>
<clipPath id="clip0_10_253">
<rect width="215" height="43" fill="white" transform="translate(0.75)"/>
</clipPath>
</defs>
</svg>
