<svg width="48" height="48" viewBox="0 0 48 48" fill="none" xmlns="http://www.w3.org/2000/svg">
<path d="M30 12.3H12C7.58 12.3 4 15.88 4 20.3V13.08C4 8.99996 7.3 5.69995 11.38 5.69995H22.62C26.7 5.69995 30 8.22005 30 12.3Z" fill="#1532EA"/>
<path opacity="0.4" d="M34.96 24.4C33.96 25.38 33.48 26.86 33.88 28.36C34.38 30.22 36.22 31.4 38.14 31.4H40V34.3C40 38.72 36.42 42.3 32 42.3H12C7.58 42.3 4 38.72 4 34.3V20.3C4 15.88 7.58 12.3 12 12.3H32C36.4 12.3 40 15.9 40 20.3V23.2H37.84C36.72 23.2 35.7 23.64 34.96 24.4Z" fill="#1532EA"/>
<path d="M44.0001 25.24V29.36C44.0001 30.48 43.08 31.4 41.94 31.4H38.08C35.92 31.4 33.9401 29.82 33.7601 27.66C33.6401 26.4 34.12 25.22 34.96 24.4C35.7 23.64 36.72 23.2 37.84 23.2H41.94C43.08 23.2 44.0001 24.12 44.0001 25.24Z" fill="#1532EA"/>
<path d="M26 23.8H14C13.18 23.8 12.5 23.12 12.5 22.3C12.5 21.48 13.18 20.8 14 20.8H26C26.82 20.8 27.5 21.48 27.5 22.3C27.5 23.12 26.82 23.8 26 23.8Z" fill="#1532EA"/>
</svg>
