<svg width="69" height="44" viewBox="0 0 69 44" fill="none" xmlns="http://www.w3.org/2000/svg">
<path d="M40.8407 0.0646362L34.3922 8.7517H60.1864V34.8129H8.59805V8.7517H34.3922L27.9437 0.0646362H8.59805C6.31771 0.0646362 4.13076 0.979878 2.51831 2.60902C0.905864 4.23816 0 6.44775 0 8.7517L0 34.8129C0 37.1169 0.905864 39.3265 2.51831 40.9556C4.13076 42.5847 6.31771 43.5 8.59805 43.5H60.1864C62.4667 43.5 64.6536 42.5847 66.2661 40.9556C67.8785 39.3265 68.7844 37.1169 68.7844 34.8129V8.7517C68.7844 6.44775 67.8785 4.23816 66.2661 2.60902C64.6536 0.979878 62.4667 0.0646362 60.1864 0.0646362H40.8407Z" fill="#56575D"/>
</svg>
