<svg width="49" height="48" viewBox="0 0 49 48" fill="none" xmlns="http://www.w3.org/2000/svg">
<path opacity="0.4" d="M38.5 20.56V34.86C38.44 40.56 36.8799 42 30.9399 42H12.0601C6.02006 42 4.5 40.5 4.5 34.54V20.56C4.5 15.16 5.76 13.42 10.5 13.14C10.98 13.12 11.5001 13.1 12.0601 13.1H30.9399C36.9799 13.1 38.5 14.6 38.5 20.56Z" fill="#1532EA"/>
<path d="M44.5 13.46V27.44C44.5 32.84 43.24 34.58 38.5 34.86V20.56C38.5 14.6 36.9799 13.1 30.9399 13.1H12.0601C11.5001 13.1 10.98 13.12 10.5 13.14C10.56 7.44 12.1201 6 18.0601 6H36.9399C42.9799 6 44.5 7.5 44.5 13.46Z" fill="#1532EA"/>
<path d="M14.42 37.12H10.98C10.16 37.12 9.47998 36.44 9.47998 35.62C9.47998 34.8 10.16 34.12 10.98 34.12H14.42C15.24 34.12 15.92 34.8 15.92 35.62C15.92 36.44 15.26 37.12 14.42 37.12Z" fill="#1532EA"/>
<path d="M25.6 37.12H18.72C17.9 37.12 17.22 36.44 17.22 35.62C17.22 34.8 17.9 34.12 18.72 34.12H25.6C26.42 34.12 27.1 34.8 27.1 35.62C27.1 36.44 26.44 37.12 25.6 37.12Z" fill="#1532EA"/>
<path d="M38.5 23.72H4.5V26.72H38.5V23.72Z" fill="#1532EA"/>
</svg>
