<svg width="49" height="48" viewBox="0 0 49 48" fill="none" xmlns="http://www.w3.org/2000/svg">
<path opacity="0.4" d="M32.88 4H16.12C8.84 4 4.5 8.34 4.5 15.62V32.36C4.5 39.66 8.84 44 16.12 44H32.86C40.14 44 44.48 39.66 44.48 32.38V15.62C44.5 8.34 40.16 4 32.88 4Z" fill="#1532EA"/>
<path d="M29.02 24L26 22.94V16.16H26.72C28.34 16.16 29.66 17.58 29.66 19.32C29.66 20.14 30.34 20.82 31.16 20.82C31.98 20.82 32.66 20.14 32.66 19.32C32.66 15.92 30 13.16 26.72 13.16H26V12C26 11.18 25.32 10.5 24.5 10.5C23.68 10.5 23 11.18 23 12V13.16H21.7C18.74 13.16 16.32 15.66 16.32 18.72C16.32 22.3 18.4 23.44 19.98 24L23 25.06V31.82H22.28C20.66 31.82 19.34 30.4 19.34 28.66C19.34 27.84 18.66 27.16 17.84 27.16C17.02 27.16 16.34 27.84 16.34 28.66C16.34 32.06 19 34.82 22.28 34.82H23V36C23 36.82 23.68 37.5 24.5 37.5C25.32 37.5 26 36.82 26 36V34.84H27.3C30.26 34.84 32.68 32.34 32.68 29.28C32.66 25.68 30.58 24.54 29.02 24ZM20.98 21.18C19.96 20.82 19.34 20.48 19.34 18.74C19.34 17.32 20.4 16.18 21.72 16.18H23.02V21.9L20.98 21.18ZM27.3 31.84H26V26.12L28.02 26.82C29.04 27.18 29.66 27.52 29.66 29.26C29.66 30.68 28.6 31.84 27.3 31.84Z" fill="#1532EA"/>
</svg>
