<svg width="205" height="49" viewBox="0 0 205 49" fill="none" xmlns="http://www.w3.org/2000/svg">
<g clip-path="url(#clip0_10_286)">
<path fill-rule="evenodd" clip-rule="evenodd" d="M24.3642 0C37.8562 0 48.7284 10.8743 48.7284 24.369C48.7284 34.4572 42.5719 43.1043 33.7955 46.9037C33.2716 47.1658 32.6166 47.2968 32.0927 47.2968C29.6038 47.2968 27.508 45.3315 27.508 42.7112C27.508 40.877 28.6869 39.1738 30.2588 38.5187L30.6518 38.3877C36.0224 36.0294 39.6901 30.6578 39.6901 24.5C39.5591 15.984 32.7476 9.17112 24.3642 9.17112C15.9808 9.17112 9.16933 15.984 9.16933 24.5C9.16933 30.7888 13.099 36.2914 18.4697 38.5187L18.7316 38.6497C20.3035 39.4358 21.3514 41.008 21.3514 42.7112C21.3514 45.2005 19.3866 47.2968 16.7668 47.2968C16.1118 47.2968 15.4569 47.1658 15.0639 46.9037C6.15655 43.1043 0 34.4572 0 24.369C0 10.8743 11.0032 0 24.3642 0ZM24.3642 15.1979C29.4728 15.1979 33.5336 19.2594 33.5336 24.369C33.5336 29.4786 29.4728 33.5401 24.3642 33.5401C19.2556 33.5401 15.1949 29.4786 15.1949 24.369C15.1949 19.2594 19.3866 15.1979 24.3642 15.1979Z" fill="#56575D"/>
<path fill-rule="evenodd" clip-rule="evenodd" d="M138.064 8.12299V39.5668C138.064 46.1176 135.444 49 128.24 49H123.524V42.1872H127.585C129.68 42.1872 130.466 41.4011 130.466 39.4358V8.12299H138.064ZM91.5623 8.12299V35.6364C91.5623 43.2353 85.7987 49 77.1533 49C71.5207 49 66.6741 47.0348 63.3993 43.6283L68.246 38.9118C70.3418 41.008 72.8306 42.1872 77.0223 42.1872C81.214 42.1872 84.3578 39.5668 84.3578 35.8984V33.1471H84.2268C82.3929 35.2433 79.2492 36.4225 75.5814 36.4225C67.329 36.4225 61.0415 30.3957 61.0415 22.2727C61.0415 14.4118 67.0671 8.25401 75.3195 8.25401C79.1182 8.25401 82.262 9.43316 84.2268 11.3984H84.3578V8.12299H91.5623ZM111.08 8.12299C119.856 8.12299 126.144 14.2807 126.144 22.2727C126.144 30.2647 119.856 36.4225 111.08 36.4225C102.303 36.4225 96.0159 30.2647 96.0159 22.2727C96.0159 14.2807 102.303 8.12299 111.08 8.12299ZM156.926 8.12299C165.834 8.12299 171.466 14.5428 171.466 22.5348V24.631H149.722C149.853 27.3824 153.39 30.2647 157.843 30.2647C160.856 30.2647 162.821 29.4786 165.179 27.3824L170.157 30.9198C168.061 33.5401 163.869 36.2914 158.105 36.2914C148.674 36.2914 142.387 30.6578 142.387 22.1417C142.518 14.0187 148.543 8.12299 156.926 8.12299ZM183.125 0V19.2594H183.256L195.307 7.86096H205L192.556 19.7834L205 36.2914H196.355L187.84 24.369H187.709L183.125 28.6925V36.2914H175.92V0H183.125ZM111.08 14.6738C106.364 14.6738 103.482 17.9492 103.482 22.2727C103.482 26.5963 106.495 29.8717 111.08 29.8717C115.796 29.8717 118.677 26.5963 118.677 22.2727C118.808 17.8182 115.796 14.6738 111.08 14.6738ZM76.7604 14.6738C71.7827 14.6738 68.639 17.6872 68.639 22.0107C68.639 26.7273 71.6517 29.6096 76.4984 29.6096C80.8211 29.6096 84.0958 26.9893 84.0958 23.7139V20.5695C84.0958 17.4251 80.6901 14.6738 76.7604 14.6738ZM157.188 14.1497C153.128 14.1497 150.377 16.246 149.984 19.3904H164.393C163.869 16.115 161.118 14.1497 157.188 14.1497Z" fill="#56575D"/>
</g>
<defs>
<clipPath id="clip0_10_286">
<rect width="205" height="49" fill="white"/>
</clipPath>
</defs>
</svg>
