<svg width="215" height="41" viewBox="0 0 215 41" fill="none" xmlns="http://www.w3.org/2000/svg">
<g clip-path="url(#clip0_10_224)">
<path d="M28.2791 17.5714C28.1901 16.2198 27.8342 14.8681 27.1224 13.6967L21.0716 2.9736C20.6267 2.16261 20.2708 1.26151 20.0928 0.360413L19.8259 0.810962C18.3132 3.42415 18.3132 6.75821 19.8259 9.3714L24.7199 17.9318C26.2325 20.545 26.2325 23.8791 24.7199 26.4923L24.4529 26.9428C24.2749 26.0417 23.919 25.1406 23.4741 24.3296L19.0251 16.4901L16.1777 11.4439C15.7327 10.6329 15.3768 9.73184 15.1989 8.83074L14.9319 9.28129C13.4192 11.8945 13.4192 15.1384 14.9319 17.8417L19.8259 26.4022C21.3386 29.0154 21.3386 32.3494 19.8259 34.9626L19.5589 35.4132C19.381 34.5121 19.0251 33.611 18.5801 32.8L12.4404 22.0769C11.6396 20.6351 11.2837 19.0132 11.2837 17.3912C4.78805 19.1033 0.25 22.7978 0.25 27.0329C0.25 32.9802 8.97017 37.756 19.7369 37.756C30.5036 37.756 39.2238 32.9802 39.2238 27.0329C39.3128 22.978 34.8637 19.2835 28.2791 17.5714ZM46.6982 35.8637C46.7872 34.3318 46.9652 33.3406 47.4101 32.0791C49.4567 33.0703 52.1261 33.5209 54.0837 33.5209C57.465 33.5209 59.4226 32.4395 59.4226 30.1868C59.4226 28.0241 57.9989 27.0329 54.6176 25.5011L52.749 24.7802C49.2787 23.2483 46.9652 21.2659 46.9652 17.3912C46.9652 13.156 49.9016 10.4527 55.7743 10.4527C58.1768 10.4527 60.4014 10.8132 62.4479 11.534C62.3589 12.9758 62.092 14.1472 61.7361 15.2285C59.7785 14.5077 57.376 14.1472 55.6853 14.1472C52.482 14.1472 51.0583 15.4088 51.0583 17.3912C51.0583 19.2835 52.482 20.4549 55.0625 21.5362L57.0201 22.3472C61.6471 24.3296 63.6047 26.4923 63.6047 30.0967C63.6047 34.3318 60.4013 37.3055 54.1727 37.3055C51.2363 37.3055 48.7448 36.8549 46.6982 35.8637ZM83.2695 18.1121V36.6747H79.5323L79.3544 34.4219C78.2866 36.0439 76.7739 37.1252 74.1935 37.1252C69.3885 37.1252 66.0962 33.5209 66.0962 27.3033C66.0962 20.8154 69.5664 17.0307 76.329 17.0307C78.9984 17.1209 81.223 17.3912 83.2695 18.1121ZM79.2654 32.4395V20.8154C78.4646 20.6351 77.4858 20.6351 76.329 20.6351C72.1469 20.6351 70.1893 23.2483 70.1893 27.3934C70.1893 31.178 71.702 33.8813 75.2612 33.8813C76.9519 33.7912 78.1976 33.2505 79.2654 32.4395ZM103.913 24.2395V36.6747H99.909V24.9604C99.909 21.9868 98.9303 20.6351 94.9261 20.6351C93.9473 20.6351 92.8795 20.7252 91.7228 20.9055V36.6747H87.7186V18.1121C90.2991 17.4813 93.1465 17.0307 95.0151 17.0307C101.778 17.1209 103.913 19.734 103.913 24.2395ZM115.125 33.7011C116.282 33.7011 117.438 33.5208 118.239 33.1604C118.15 34.2417 117.972 35.5033 117.794 36.5846C116.727 37.0351 115.481 37.2154 114.413 37.2154C110.498 37.2154 108.006 35.4132 108.006 30.9077V11.3538C109.252 10.9033 110.765 10.723 112.01 10.723V17.7516H118.417C118.328 19.0132 118.239 20.1846 118.061 21.2659H112.01V30.367C112.01 32.7099 113.167 33.7011 115.125 33.7011ZM136.747 18.1121V36.6747H133.01L132.832 34.4219C131.764 36.0439 130.252 37.1252 127.671 37.1252C122.866 37.1252 119.574 33.5209 119.574 27.3033C119.574 20.8154 123.044 17.0307 129.807 17.0307C132.476 17.1209 134.612 17.3912 136.747 18.1121ZM132.654 32.4395V20.8154C131.853 20.6351 130.875 20.6351 129.718 20.6351C125.536 20.6351 123.578 23.2483 123.578 27.3934C123.578 31.178 125.091 33.8813 128.65 33.8813C130.341 33.7912 131.675 33.2505 132.654 32.4395ZM157.391 24.2395V36.6747H153.298V24.9604C153.298 21.9868 152.319 20.6351 148.315 20.6351C147.336 20.6351 146.268 20.7252 145.112 20.9055V36.6747H141.107V18.1121C143.688 17.4813 146.535 17.0307 148.404 17.0307C155.166 17.1209 157.391 19.734 157.391 24.2395ZM177.768 10.723V36.6747H174.03L173.852 34.3318C172.785 36.0439 171.272 37.1252 168.603 37.1252C163.798 37.1252 160.505 33.5209 160.505 27.3033C160.505 20.8154 163.976 17.0307 170.738 17.0307C171.806 17.0307 172.785 17.1209 173.764 17.3011V11.1736C175.009 10.8132 176.433 10.723 177.768 10.723ZM173.764 32.4395V20.9956C172.696 20.8154 171.628 20.6351 170.56 20.6351C166.556 20.6351 164.687 23.1582 164.687 27.3934C164.687 31.178 166.2 33.8813 169.759 33.8813C171.361 33.7912 172.696 33.2505 173.764 32.4395ZM198.055 28.745H185.153C185.687 32.0791 187.556 33.611 191.204 33.611C193.428 33.611 195.653 33.1604 197.611 32.1692C197.433 33.2505 197.255 34.6923 196.988 35.8637C195.119 36.6747 193.25 37.0351 191.026 37.0351C184.263 37.0351 181.06 33.2505 181.06 26.9428C181.06 21.4461 183.551 17.0307 189.958 17.0307C195.742 17.0307 198.233 20.8154 198.233 25.5011C198.233 26.7626 198.233 27.6637 198.055 28.745ZM185.153 25.3209H194.229C194.229 22.2571 192.628 20.4549 189.869 20.4549C186.933 20.545 185.42 22.167 185.153 25.3209ZM212.203 17.3011C212.203 18.5626 212.025 20.0044 211.848 20.8154C210.869 20.7252 209.979 20.6351 208.822 20.6351C207.843 20.6351 206.865 20.7252 205.886 20.8154V36.6747H201.882V18.1121C203.572 17.4813 206.509 17.0307 208.733 17.0307C209.89 17.1209 211.314 17.1209 212.203 17.3011Z" fill="#56575D"/>
</g>
<defs>
<clipPath id="clip0_10_224">
<rect width="214" height="41" fill="white" transform="translate(0.25)"/>
</clipPath>
</defs>
</svg>
