<svg width="201" height="45" viewBox="0 0 201 45" fill="none" xmlns="http://www.w3.org/2000/svg">
<g clip-path="url(#clip0_10_328)">
<path fill-rule="evenodd" clip-rule="evenodd" d="M107.413 30.805C105.239 33.0132 102.641 34.1242 99.6269 34.1242C97.1897 34.1242 95.1193 33.6265 93.0062 32.3959V27.3304C94.7055 28.4854 96.8407 29.5854 98.9483 29.5854C103.343 29.5854 105.959 26.5562 105.959 22.2607C105.959 17.9625 103.253 14.8426 98.8559 14.8426C96.8931 14.8426 95.3014 15.5494 94.0573 16.967C92.7248 18.5029 92.0352 20.6987 92.0352 23.6V43.6021H91.7042C91.1269 43.6007 90.5555 43.4859 90.0228 43.2643C89.49 43.0428 89.0062 42.7188 88.599 42.3109C88.1919 41.9029 87.8693 41.419 87.6497 40.8868C87.4301 40.3546 87.3179 39.7845 87.3193 39.209V22.8506C87.3193 15.9082 91.5552 10.3037 98.8366 10.3037C102.43 10.3037 105.35 11.5344 107.563 14.0094C109.645 16.3207 110.675 19.2495 110.675 22.775C110.675 25.91 109.587 28.5926 107.413 30.805ZM158.478 30.6345C156.312 32.9624 153.526 34.1242 150.15 34.1242C146.584 34.1242 143.678 32.8923 141.467 30.4186C139.387 28.0784 138.355 25.1469 138.355 21.6544C138.355 15.471 143.118 10.3037 149.387 10.3037C151.805 10.3037 153.904 10.8152 156.024 11.9812V17.0962C154.325 15.9412 152.19 14.8412 150.082 14.8412C145.688 14.8412 143.07 17.8717 143.07 22.1686C143.07 26.4064 145.839 29.5867 150.173 29.5867C152.134 29.5867 153.751 28.8497 155.042 27.3661C156.328 25.8907 156.995 23.7237 156.995 20.8142V4.89312C156.994 4.31766 157.106 3.74754 157.326 3.21532C157.545 2.6831 157.868 2.19921 158.275 1.79127C158.682 1.38333 159.166 1.05933 159.699 0.837775C160.231 0.616219 160.803 0.501443 161.38 0.5L161.711 0.5V21.5609C161.711 25.2692 160.641 28.3052 158.478 30.6345ZM171.795 8.05562C171.3 8.61112 170.591 8.86687 169.726 8.86687C168.107 8.86687 166.948 7.67062 166.948 6.0605C166.948 4.41325 168.085 3.30087 169.725 3.30087C171.304 3.30087 172.503 4.47375 172.503 6.0605C172.503 6.84425 172.274 7.51937 171.795 8.05562ZM195.759 20.8142C195.759 18.9511 195.056 17.4757 193.643 16.3592C192.37 15.3541 190.78 14.8426 188.845 14.8426C184.576 14.8426 181.835 18.1852 181.835 22.3089C181.835 26.2757 184.741 29.5867 188.801 29.5867C191.624 29.5867 193.133 27.934 194.744 25.8742V31.8101C193.923 32.4261 192.98 33.0985 192.017 33.4917C191.001 33.918 189.787 34.1242 188.384 34.1242C181.597 34.1242 177.119 28.4909 177.119 21.9816C177.119 18.639 178.155 15.8752 180.242 13.7206C182.456 11.4367 185.359 10.3037 188.915 10.3037C195.655 10.3037 200.477 14.1812 200.477 21.1869V33.6581H200.146C199.568 33.6567 198.997 33.5419 198.464 33.3202C197.931 33.0986 197.447 32.7745 197.039 32.3664C196.632 31.9584 196.309 31.4743 196.09 30.942C195.87 30.4096 195.758 29.8393 195.759 29.2636V20.8142ZM131.197 19.475C130.601 17.6284 129.853 16.7195 128.134 15.7584C124.048 13.4704 120.024 15.4187 118.154 19.4571L131.197 19.475ZM127.598 34.0541C124.586 34.6962 121.63 34.2012 118.746 32.587C115.932 31.0126 114.049 28.6724 113.104 25.5786C111.195 19.3224 115.106 12.3511 121.397 10.664C124.514 9.82662 127.504 10.2061 130.344 11.7956C135.061 14.4384 136.78 18.5249 136.481 23.7911L117.479 23.7512C117.759 25.899 119.088 27.5792 120.955 28.6242C122.85 29.6844 124.591 29.9387 126.206 29.4355C127.999 28.8717 129.456 27.4046 130.639 26.0392L134.511 28.8662C132.932 31.6987 130.781 33.3762 127.598 34.0541ZM167.368 10.7712H172.083V33.6581H171.752C171.175 33.6567 170.604 33.5419 170.071 33.3202C169.538 33.0986 169.054 32.7745 168.647 32.3664C168.24 31.9583 167.917 31.4742 167.698 30.9419C167.478 30.4095 167.366 29.8392 167.368 29.2636V10.7712ZM7.40208 33.6567C2.78829 33.6567 0.500014 30.5135 0.500014 26.1245V9.46912C0.498563 8.89347 0.610865 8.32318 0.830508 7.79079C1.05015 7.25841 1.37283 6.77436 1.78013 6.3663C2.18743 5.95823 2.67136 5.63413 3.20431 5.4125C3.73725 5.19088 4.30877 5.07607 4.88622 5.07462H5.21726V10.7712H13.1855V15.3087H5.21726V26.6497C5.21726 28.5775 6.07519 29.1192 7.91519 29.1192H13.1842V33.6567H7.40208ZM34.7924 30.7651C32.4614 33.0022 29.6614 34.1242 26.409 34.1242C23.1855 34.1242 20.4007 33.0009 18.0711 30.7651C15.7331 28.5184 14.5676 25.6597 14.5676 22.214C14.5676 15.493 19.6904 10.3037 26.409 10.3037C29.6324 10.3037 32.4255 11.4354 34.769 13.689C37.1221 15.9481 38.2973 18.7985 38.2973 22.214C38.2973 25.6597 37.1304 28.5184 34.7938 30.7651H34.7924ZM56.8448 16.2781C56.1524 17.44 55.6159 18.2746 55.2379 18.7779C54.8228 19.3251 54.4117 19.7624 54.0048 20.0649C57.2821 21.1264 58.5028 23.4006 58.5028 26.79V33.6567H58.1717C57.0058 33.6538 55.8887 33.1894 55.0661 32.3656C54.2436 31.5417 53.783 30.426 53.7855 29.2636V27.2561C53.7855 25.0616 52.8035 23.5725 50.4835 23.5725H46.1966V33.6567H45.8655C44.6999 33.6535 43.5833 33.1888 42.7613 32.365C41.9393 31.5412 41.4792 30.4256 41.4821 29.2636V4.89312C41.4804 4.31772 41.5925 3.74763 41.812 3.21542C42.0314 2.68321 42.3538 2.19931 42.7609 1.79135C43.168 1.38339 43.6517 1.05938 44.1844 0.837802C44.7171 0.616229 45.2883 0.501443 45.8655 0.5L46.1966 0.5V18.9882H47.591C49.1221 18.9882 50.129 18.463 50.7083 17.4702L54.6683 10.7726L60.0435 10.7671L56.8421 16.2781H56.8448ZM81.1897 30.7651C78.8586 33.0022 76.0586 34.1242 72.8062 34.1242C69.5828 34.1242 66.7993 33.0009 64.4683 30.7651C62.1304 28.5184 60.9648 25.6597 60.9648 22.214C60.9648 15.493 66.0876 10.3037 72.8062 10.3037C76.0311 10.3037 78.8228 11.4354 81.1676 13.689C83.5193 15.9481 84.6945 18.7985 84.6945 22.214C84.6945 25.6597 83.5262 28.5184 81.1897 30.7651ZM77.7855 16.8886C76.4862 15.526 74.8352 14.8426 72.8062 14.8426C68.4655 14.8426 65.8683 18.012 65.8683 22.214C65.8683 26.3582 68.5276 29.5867 72.8062 29.5867C77.0862 29.5867 79.7442 26.3582 79.7442 22.214C79.7442 20.014 79.0848 18.2485 77.7855 16.8886ZM31.3897 16.8886C30.0904 15.526 28.4379 14.8426 26.4104 14.8426C22.0697 14.8426 19.4724 18.012 19.4724 22.214C19.4724 26.3582 22.1317 29.5867 26.4104 29.5867C30.689 29.5867 33.3483 26.3582 33.3483 22.214C33.3483 20.014 32.689 18.2485 31.3897 16.8886Z" fill="#56575D"/>
</g>
<defs>
<clipPath id="clip0_10_328">
<rect width="200" height="44" fill="white" transform="translate(0.5 0.5)"/>
</clipPath>
</defs>
</svg>
